<?xml version="1.0"?>
<svg version="1.1" xmlns="http://www.w3.org/2000/svg" width="400" height="120" style=""><path fill="#4285f4" d="M39.583984375,109.96875q-20.900390625,0-20.900390625-22.9423828125q0-11.4111328125,5.685546875-17.43701171875t16.2958984375-6.02587890625q7.767578125,0,13.93359375,3.04296875l-3.603515625,9.44921875q-2.8828125-1.1611328125-5.365234375-1.90185546875t-4.96484375-0.74072265625q-9.529296875,0-9.529296875,13.533203125q0,13.1328125,9.529296875,13.1328125q3.5234375,0,6.5263671875-0.94091796875t6.005859375-2.94287109375l0,10.4501953125q-2.962890625,1.8818359375-5.98583984375,2.6025390625t-7.62744140625,0.720703125z M100.91461914063,109.16796875l-1.6416015625-5.7255859375l-0.640625,0q-1.9619140625,3.123046875-5.5654296875,4.82470703125t-8.2080078125,1.70166015625q-7.8876953125,0-11.8916015625-4.22412109375t-4.00390625-12.15185546875l0-29.1884765625l12.2119140625,0l0,26.1455078125q0,4.8447265625,1.7216796875,7.26708984375t5.4853515625,2.42236328125q5.125,0,7.4072265625-3.42333984375t2.2822265625-11.35107421875l0-21.060546875l12.2119140625,0l0,44.763671875l-9.369140625,0z M142.10560546875,76.6162109375l4.00390625,0q5.8857421875,0,8.6884765625-1.9619140625t2.802734375-6.166015625q0-4.1640625-2.86279296875-5.92578125t-8.86865234375-1.76171875l-3.763671875,0l0,15.8154296875z M142.10560546875,86.7060546875l0,22.4619140625l-12.412109375,0l0-58.537109375l17.056640625,0q11.931640625,0,17.6572265625,4.34423828125t5.7255859375,13.19287109375q0,5.1650390625-2.8427734375,9.18896484375t-8.0478515625,6.30615234375q13.212890625,19.7392578125,17.216796875,25.5048828125l-13.7734375,0l-13.9736328125-22.4619140625l-6.6064453125,0z M216.92940429687,109.16796875l-2.3623046875-6.0859375l-0.3203125,0q-3.0830078125,3.8837890625-6.34619140625,5.38525390625t-8.50830078125,1.50146484375q-6.4462890625,0-10.14990234375-3.68359375t-3.70361328125-10.490234375q0-7.126953125,4.98486328125-10.51025390625t15.03466796875-3.74365234375l7.767578125-0.240234375l0-1.9619140625q0-6.806640625-6.966796875-6.806640625q-5.365234375,0-12.6123046875,3.2431640625l-4.0439453125-8.248046875q7.7275390625-4.0439453125,17.13671875-4.0439453125q9.0087890625,0,13.8134765625,3.923828125t4.8046875,11.931640625l0,29.8291015625l-8.5283203125,0z M213.32588867187,88.427734375l-4.724609375,0.16015625q-5.3251953125,0.16015625-7.927734375,1.921875t-2.6025390625,5.365234375q0,5.1650390625,5.92578125,5.1650390625q4.244140625,0,6.78662109375-2.4423828125t2.54248046875-6.486328125l0-3.68359375z M262.5246875,100.2392578125q3.203125,0,7.6875-1.4013671875l0,9.0888671875q-4.564453125,2.0419921875-11.2109375,2.0419921875q-7.3271484375,0-10.67041015625-3.70361328125t-3.34326171875-11.11083984375l0-21.5810546875l-5.845703125,0l0-5.1650390625l6.7265625-4.083984375l3.5234375-9.44921875l7.8076171875,0l0,9.529296875l12.5322265625,0l0,9.1689453125l-12.5322265625,0l0,21.5810546875q0,2.6025390625,1.46142578125,3.84375t3.86376953125,1.2412109375z M303.43540039062,72.251953125q-3.8837890625,0-6.0859375,2.46240234375t-2.5224609375,6.98681640625l17.13671875,0q-0.080078125-4.5244140625-2.3623046875-6.98681640625t-6.166015625-2.46240234375z M305.15708007812,109.96875q-10.810546875,0-16.896484375-5.9658203125t-6.0859375-16.896484375q0-11.2509765625,5.62548828125-17.39697265625t15.55517578125-6.14599609375q9.4892578125,0,14.7744140625,5.4052734375t5.28515625,14.9345703125l0,5.92578125l-28.8681640625,0q0.2001953125,5.205078125,3.0830078125,8.1279296875t8.087890625,2.9228515625q4.0439453125,0,7.6474609375-0.8408203125t7.52734375-2.6826171875l0,9.44921875q-3.203125,1.6015625-6.8466796875,2.38232421875t-8.888671875,0.78076171875z M353.15470703125,109.96875q-7.8876953125,0-12.39208984375-6.1259765625t-4.50439453125-16.9765625q0-11.0107421875,4.58447265625-17.15673828125t12.63232421875-6.14599609375q8.4482421875,0,12.892578125,6.56640625l0.400390625,0q-0.9208984375-5.0048828125-0.9208984375-8.9287109375l0-14.333984375l12.251953125,0l0,62.30078125l-9.369140625,0l-2.3623046875-5.8056640625l-0.5205078125,0q-4.1640625,6.6064453125-12.6923828125,6.6064453125z M357.43888671875,100.2392578125q4.6845703125,0,6.86669921875-2.72265625t2.38232421875-9.2490234375l0-1.3212890625q0-7.20703125-2.22216796875-10.330078125t-7.22705078125-3.123046875q-4.083984375,0-6.34619140625,3.46337890625t-2.26220703125,10.06982421875t2.2822265625,9.90966796875t6.5263671875,3.30322265625z"/><path fill="#" d=""/></svg>
